<mxfile host="app.diagrams.net" modified="2023-01-30T05:08:32.456Z" agent="5.0 (Macintosh; Intel Mac OS X 10_15_2) AppleWebKit/537.36 (KHTML, like Gecko) Chrome/109.0.0.0 Safari/537.36" etag="5zVxOmtMn-X0-DsyhEU-" version="20.8.13" type="github">
  <diagram name="第 1 页" id="AV7mCh8jPAPctnLqdQzR">
    <mxGraphModel dx="954" dy="1738" grid="1" gridSize="10" guides="1" tooltips="1" connect="1" arrows="1" fold="1" page="1" pageScale="1" pageWidth="827" pageHeight="1169" math="0" shadow="0">
      <root>
        <mxCell id="0" />
        <mxCell id="1" parent="0" />
        <mxCell id="QcueibEvGzN47DiXS-O3-1" value="" style="shape=image;verticalLabelPosition=bottom;labelBackgroundColor=default;verticalAlign=top;aspect=fixed;imageAspect=0;image=data:image/gif,R0lGODdhTgJzAKUAAAQCBISChERCRMTCxCQiJKSipGRiZOTi5BQSFJSSlFRSVNTS1DQyNLSytHRydPTy9AwKDIyKjExKTMzKzCwqLKyqrGxqbOzq7BwaHJyanFxaXNza3Dw6PLy6vHx6fPz6/AQGBISGhERGRMTGxCQmJKSmpGRmZOTm5BQWFJSWlFRWVNTW1DQ2NLS2tHR2dPT29AwODIyOjExOTMzOzCwuLKyurGxubOzu7BweHJyenFxeXNze3Dw+PLy+vHx+fPz+/CwAAAAATgJzAAAG/sCfcEgsGo/IpHLJbDqf0Kh0Sq1ar9isdsvter/gsHhMLpvP6LR6zW673/C4fE6v2+/4vH7P7/v/gIGCg4SFhoeIiYqLjI2Oj5CRkpOUlZaXmJmam5ydnp+goaKjpKWmp6ipqqusra6vsLGys7S1tre4ubq7vL2+v8DBwsPExcbHyMnKy8zNzs/Q0dLT1NXW19jZ2tvc3d7f4OHi4+Tl5ufo6err7O3u7/Dx8vP09fb3+Pn6+/z9/v8AAwocSLCgwYMIEypcyLChw4cQI0qcuOhCAgUUYABAQEFBggt4XhQwwAAFBAgYOBioALLKgAASSGDYSICGgQQbMk3wIMAk/sqOAQY0AUC0qNGjSJE6GRABIwYYPxUEGPGByocGNjgQOImAgYYcLSn6uWAgqVEDYavsmFn0QZUbDswWBeHgRJQPCUjILcqhBpcFEI66VcICAQbDCBAjRrEY8WHDQpn0YLAXAIkMSyprNrrkQQwCmnFEeFDVyYMAgeWC0HBALJ8GqSvD8FtlAQLBVBrc3gyhwpMFFDYXFdAaywPQuJXEFo60BRMLzFkcKG2EuWYlHdgKR+C8iW7hIBK4zpPAOoAUVAosJ3pjSnnzHrybJ4pgARYJSdsneTAfaQclH3BgHgo7INGfWUkEcKADTChongXj2VGBaiCY5RsUD2hg1gtS/hRAoVzoKdHAXiCsZxQKdlXhIFIcJrHBgUZ1hwR+SYFQoVkEDFYEjEodsWKNJhrlghIekHgjUkNGKMcGGh1lwgxDjADdUTDk1MQLAeyWXxSAIWXCCC0+0IIBRxa1QhIHlEkUCxmcKcQLA7igZVEKVNGBXPohcSePAPSQRJFHidBCimLqkJQNR/BZFApH7HkUClO1+MIMIWhn1IVGeIgUDSm4+cMBKbCAVANKxkHjolAaMQMKR0nAxAIezJlUi08Ed6KnRSyAQ6BJCHAUCDkkcQEPSI0wxQFBEkXrESUclScWC/wqYxGrIpWWFe8VlWQRthplwbJFuIAUDuD+cIGJ/iEeUUCZBJT6xgC/pnrEAmoam0S3lT3LxIRGgWAlEisgJS8R8B5FWxIvWArAtk98gC9S+hYRQb9cnAoACLgasYGaIWjxcIFFjHiUD0xkW1QBRkxp1MFIjFBmx+6y4atRMCcxsVEiKGEWsUeVqwRlND838hFlGaVDEyYDQIMUGi7KohJxFdWuFgUXFewSPwLAQBaOEpWzEU0XxYMTIhwlQxEXIIm0UTBQF/MZ0RqFgM9EfCDrv9UhdTTEv1FJNxFdA8DCEetljMSLbEeRQr8BO6tE2ACMrYWAYjeRds9YKGDwEQ+X4EQLR+FQRLMn/l0EckSx/HYZWTOchLhBG3ii/uc/PO3E4kZbfhQGGh9FghMvIOX2EhMcFaztSMxMlApaHHDUwETqIL0BOoBchfMnIiGr9Z31OATkADDoxI9nr34G0EXZS/xRg8t+sQt58u0E+OkC6P0Q/BbF/JX3L3GBpSYQgvyQoJeiICoLNyMKB9jwAUAVhWRHUFPEkPAB4REBfUSZ1hKqdrHhmQ8Ml1vUE1hllGsNAQAE8IG+kMcEDAJAfUq4gQWJ8IIDHGAHJ9iBjpYQNxE6QXlKOyHmkjCnCEzOKPVDg92OkiIjKAxvSjjBr4qgMO4tAXvp+yAZAle+JlgMABocAvSEaJQJImFXRrEiEmZApS2E4Cj7Y0LU/ogCgyYO0AgVNMrVrsCfNLJBU0XpohF4VhTaMUFkRVkaEdZjxiPIEIlaHEMCiQLBJjiQKDGIAguXsB4THmGSQczCuY4SxiPkL4NE2CQREFcUPwnhAQXQAQcogAEGSMABkVECB2FQhBF4QAIEwAABOKCACNinC5QrSimFkDVXNUFzQirC9p6ARaIEMJJhKJrVngBIa2rScU644Q7GWRwmPOyAV9jAw9q3hA0sp5ICBOcROAiAM60AmmbBAGaSgDuiSO4HDXjYUShAKi0UzyiiQxNSMJUERJrpdEeB4QaP8k9seoGQRHFlEwJX0aEMEQzdRGUVHtABbS6qiftBHQC+/pbKjxrhlAC4gQ+Ew4ByFkFlAGDeB8AnFwE0EgomBUDNkDBHooAgiUVYl5OMAEShPiFrirSoFx52zCb0kCgU+GYZw3ABWeHAg0vIAAoOIxcaqPEI+AQAufK2VSQkTQbWQYHhfgBEEwTIOgSAohRG2VYlfNEyERjABT7wgRNMIAIq9ZoHLwmArDrhYQmVahcSe1YkVFOtWi2K6azwgGQWZZ9QSFroMtmESYJgjLVzaREYOx8MmBCDNuBpaDa7BFDGcQk2ONA1jdADpOxRCRlACi8l2wVZodR/R0FAZtnzhQeIynfukQsKVJeEwP22pX01gqGSQoMQjOAAL7jBDEKV/hSWDkGlTaKjC3pwgsLOIAIFhKMVFKZRJkzgr3sRgUQh2q8J8NBEICBuFxj5hD7OZbkAoK0UNpDYi821ZJXBAcqUcAASetN9mk3CX1GwzB+UwEQFHYKFj6IDM8YgKfWFgkMtA4UF2EBNqnkScJECAoaGLEgBFvAWJFjgKULhjlmATVKu+wTRJkUCdPvAc4kS1UTJ0wgPw8BxjTCC9bBTCEFCJxJWDAABUKGppG0CTq1jVwq6UIEFKOcJCuDZMjFKx1qQlSeREEI6IljBTyiqUcLM2R1gZcREYYDPcFpHnamWCIDe7ycFtkikXDlBSHmwElhp1J8O4QNN/RWMjcIB/rB+Kr1JgQGMcZADo0wNzligLDVDh2BLU/PMFzPkFj6QWxIbIbgxysyTQ1aDBlSgBilOwgcAzWdZvbAJwz4KUoVmFA04IahEkUEJ/vWBFeQAo/pLQrWYQ6BuNhnVVXiYpI1w1VA+QZVTqECQUKBoLYASAAObwTuZgO4rMFaQif22EmBHpyg8QFbtLgJMLTPuCcT3ZGiigXDM+gOTmRfcVMD2f5zA0VZjYcximzIyjwKhV1rq4RhmbhdW/LshKNwoWl5C4PS9hKSVfAkfUJigmeDcR4UVjWaBgQ9K86OOQ7wKYyZyEkJqgDtb4QKeNUp8yIDrRA7hRzhwdWqNgmco/lxWuUNoKmiZQGkAvLlWym5CSEGg8SPwFeEA6oELOICD28CABjoowbIgt+yfPwGU8FwCY/ns0exyydheDzgeF7CBBayA8FBoXFGG+4MfgQADKGDMYSSvGEADAAaTP0wWDFwUItS6KDaOoY8p/isFgy/lS+D38raAL//anQpcfMIXJ37uQ1N80yqQ+hAuC4Addo9izFRUUrKQR6oPoempe0KdLw+FtAJgt0tIbLB1yWpRlqnqr0ebzZ0A6LInAchO4PLFhM6Ewq06e8EX/lGyIMX1D+Gg23RCuV/OBN6j9gigBoBNmdD+okBAC8jXUdkHBUtGFK63PkbxaH2XYVEw/gEmggPjRhjG8wSBw05Zo35D4AEMsIE0wAC0xwT0RH8fUCaolwTIBwAL5ASMxXJIsB7eZ3aj9wMvMAE0OAEDoFe9YhRbN4BQAEqugwSMNVROAH4w12AsoHtHwFjO1AQmcBRFl37q13lQSElPwFi39QOQw4JodRQ/SEGyQn5HkFj3hwTzRwSXxXgIWBRIyIOr9Ciedml3IwX1lgTQxgPYZwSK10pN0HUAQF0WZ0rs4wRLpEchE1F7iBTTpy5+8wRNJYS1RVFFAGiJWAQWA3Js+ENH4YgSwytyuGvttCl3eAQuhAI4SAQXgHNEgQJvOIS29wMPUC9NoGcgoC+DqEBe/uSGTuBCPldaj+J7wiYrfOd8Szh0z3OJUzACvyJpXWIUgvd9rYgE4AMClRUFyEglIWYEHWBsYFh7fkcETWgUJOCLSYUU4lME/XRhf4IUfJcE8FcUY3gEvCcACuZ8AGBFXDZhSNCOAFAnxjgFX4QCC+BBCwBow/hjnigsapJ3VgBtgpMBC0AaN7AACQBrCjgFc7gxR8FwR/ABeuZ1ZvQwGjBBH4BxkcUE4FORSwBtNFBVR7ABmXY0ToQUO4g/6zGN/ThpMGYDASkEC4Bx0kgFc/hSwpV5ifEYk9cYh0FYeIRt1kECa+iM3UgEogUCBjAApCEEExAACiNS84QUCOAC/iMwWBcwA1pJY+9oimoia05wAflHFAKQAhMwWB9wAROQAZl2eRMUUmuSARvgFhdQAJm2jjfpBDUgF4CXfEB5kEjAkP1hRi9wl5pBAy9okMb3OKpxmERRd0PwbsKhlkqQNW1zjMkCHmOIX5oBk4M5BSeoGZq5gMryBAXII+IoBB8QApsmF11YBUR4U/MBAp7pI+YBAn6YBImVm00wAG0pHDAgeC+QdJpxhakZBUKmGTDQYawYlUjQYAdiaTvgAKNpVC5gkxb5jERQAJYnFywgnkRQAcmZFBQQgQIXaVZwAqa5FzIwZzTEmEmhidEJBRegA7dpTZPpmgn2BN9pHQom/SYBIAIsQAAoQAIsIAE+MIlXsJtGcAEucJ4JOJwx5ADtSRQ48JtL0AA+UKIl2ppPMAAqEKBzoQO5tFFlk1/w2Z9NcAIJIAMkEBggQAIKkAIDCg0fUANZgQE2ggI0IAMJcJadIaQC4KA4wAIyEABKqgZi4gMywAEyYaRQGgItEIpCAComgKU4gAIUIAMxoJ40mqZquqZs2qZu+qZwGqdyOqd0Wqd2eqd4mqd6uqd82qd++qeAGqiCOqiEWqiGeqiImqiKuqiM2qiO+qiQGqmSOqmUWqmWeqmYmqmauqmc2qme+qmgGqqiOqqkWqqmeqqomqqquqqs2qqu+qq8EAQAOw==;" vertex="1" parent="1">
          <mxGeometry x="60" y="80" width="370" height="72.12" as="geometry" />
        </mxCell>
        <mxCell id="QcueibEvGzN47DiXS-O3-2" value="" style="shape=image;verticalLabelPosition=bottom;labelBackgroundColor=default;verticalAlign=top;aspect=fixed;imageAspect=0;image=data:image/gif,R0lGODdhTgIJAaUAAAQCBISChERCRMTCxCQiJKSipGRiZOTi5BQSFJSSlFRSVNTS1DQyNLSytHRydPTy9AwKDIyKjExKTMzKzCwqLKyqrGxqbOzq7BwaHJyanFxaXNza3Dw6PLy6vHx6fPz6/AQGBISGhERGRMTGxCQmJKSmpGRmZOTm5BQWFJSWlFRWVNTW1DQ2NLS2tHR2dPT29AwODIyOjExOTMzOzCwuLKyurGxubOzu7BweHJyenFxeXNze3Dw+PLy+vHx+fPz+/CwAAAAATgIJAQAG/sCfcEgsGo/IpHLJbDqf0Kh0Sq1ar9isdsvter/gsHhMLpvP6LR6zW673/C4fE6v2+/4vH7P7/v/gIGCg4SFhoeIiYqLjI2Oj5CRkpOUlZaXmJmam5ydnp+goaKjpKWmp6ipqqusra6vsLGys7S1tre4ubq7vL2+v8DBwsPExcbHyMnKy8zNzs/Q0dLT1NXW19jZ2tvc3d7f4OHi4+Tl5ufo6err7O3u7/Dx8vP09fb3+Pn6+/z9/v8AAwocSLCgwYMIEypcyLChw4cQI0qcKAqAxYsPGn24eLETR4sZscwQgACChAlJVkiAgEDAgg9GPgIIaUUmTYoeP95M9ECm/psLAThgkOmDjE0sEyBwBIHSyAIES5sSOXqFKs6cHG80euGTTQmlMi0WHSNT6xUJMgUcQftRbZGyWOBe5TIDph+ZLzR2VVMhLMexYvBiAbv0CAyZIGJ+zFt18dwsHzIwmPlH7qKeH9dcIOwXcBjLVQ5/hHEE6mjFWeN+NPuYygYbpinfdcyIa2Y1IcKCQAEDBYIIRmlbYctRxlqZIlBfZFxTeGspoPdER2Sb4xoOH2msUDNdygIQHCFsN7JCtEUQM5RbZF2l+/MmgmdzZK5o4+00sS0OWBP/ygwJIEAgw3hHbAAgDBKkpx4A9FHR33tQuHeHhIRgZl0a9qXG3Wp1/lDohIcQHvGgdM4lUl1HaZxoERsjwtEidCWGyASIc9AIiIoAqJEhihtqWCOHjfkoI3wxhjFDBAZwQAEGGDDAgwEVHGBXEv19UIAEOEAAAQYceDDBlFF04IAES2JAgQAWFHDBFBM4IAAGSuGgQAEf2LXjik2IKQAFCBBAgQQe7BeFhTw+0eabEIDAZQAHELHAo48qOJVwBwRAEgQwnJmAlFoU4KmnOYhYZBQvJjGBDQIQ0KQCGax5xAkRkIkBARzY0IEVD2SgAA2zMiBBALdOcUACGjCgKg4caBDBDld8UIEBfAIAAwG/buBaABIQkCgCFEAJJhUfJHApAQo0kMQG/kiysKSfaObgKpFCgvFBDAT4xZECkoqqYQVD+cVAD1C8EEB+YcmQ7xIdTOYXChUIQSieSXwQAcEf4ZDAt0RggIBvGlO8MccbJ9EBBfYCYIBWd+b4FocvOFCyDTutzFHMQlg1BIUXkPyRDGBOd9QG2PkFMxEvWGAvBcEiQVUAnH1EQcNPdMBDyQCw0AHGMlukghAF9OuXCAtAMVLJCBQghAb33azTDwuQENYRFShccoJKU72XFivUa/dFMVDpmMt224C1EQN4HfjgRBgd+A84KrGA3nZrV/feaQ/xgQF7E7DBDXfXvNgBOpdMwQl+zzw5Rgs2SMQBkF+0ddYWqW5T/g7gid7oD6DbHUDpGK0QeskmNPGADJQDIAF76m2N+d67NxEA5Rr8gPaFk848gHmVXxA05TboWzwXA1Bstwunr6f43sYtUUDxF/GshALFm/CwykcM0DTVMEhVPfv0W7693TjYQed+IJMd/K5kNODdesoHAOQREEhG2EDrLBK8BTlQJjGgHAlecADDlax5CxoBCuK3hA3ggH8YIFDypkc5AzBhedBTQeUeyJEVjNAvRNiAB/cWPdjtbQsXEN/eWuA9i+TmIyCoXVgsoIQG8O8iFTzC+XQjkyNSrwgLuJ/dYHC7/bHPCPDzSxJlQoMByoQ45ylZCBioOs/NJ3UFuiFH/shXRAYtiH06kNvekuZFAMiRcuZCQgef6Mcuwg57FxmjX+iIBA+UTInhmaFMZGgvIuiRfRnwod22EEaOkCAFM7jBB24wgxCc8CMkqCNHRNACxpygACIIC8COsBkypmAFD3jBDkpAyY/MsggdCIsIckA6xtUAjQP8wQfclp0c4FKXJejkRRKoyR8SIQEFa4FZblADaZrRLzQoAWNW4IP7IQBr7vEZBIewAEQCADgMvODXWnABaDJTjD5YwAtusIIUHBAA1KymtDwQSl12MywBLcIH/mcRGNhgBAfQZQ8MAEmLsICBxamBWS5QAuLJZARImEDBalBMbsaykgLFIddk/oKDFCxAKw/YQQ16eREY3MQ3vaFYb3LaGy0cQCaMVOhJOcJHN8okk3BrGgHaiEwAhABrA/gjQI3wgQmCoAZIyAFKizBFi/TtCCPwIFKTML8lXKCiIPglMN0JMbVNUnU72CFW4VhH2ZUoKTIJlQLtWM01gnFhYVMoTS1CxGrSoJhF6AHFQGoEwHHkeEc4wNQ+4gFVAgAEJUBCDRCZSqoeEAaFNUIBKlooo8rEBgXdQQsAg0weDK4HFU3BXtuYBRd85HVI+MApL9K9an4VCR2o6FiHMIAqOk4m+vtBBmSiVtGqNIcYVMIKOIMC2josmURw7EWaW4QJkLZ/prVIQrt7/to6OjC88hRSB5p21SWo8yNRLMIDpGoR7grhBRNkoiZxYN0WEMUIB6hocpLwgskm0pDhtQjUgCsTsxVhfb5UQl/eVk0cqNAIEzxYEbD52L2eNwsMZZYSOHyRi2rSLUrQ7lSL4E0eMMG2HInvD8rIkd4qoang/QEMLeLiJZDYInpFQuPISjDPIOF53/yIhokggI+Y2Ie0bVF/WsBe+0J5QdVNApJXqYQIZOeOVh5Ck7nM1YohzmEEs7FbOaIDJqiYA0ZgqJqRsOPS0pAjKEAsEpqmZ6piDwWz/cIHONPZ4+L5jksuwg2apsILyOTCRxAgRxK6ACR+mAgroPAQHlDR/tBGDHsDzi12hRDMpVh3CC+434KejITlHtqC8YT1DybMkfzB6yLpvUhQCSeTzCZhBKfxIZzV9xEMFCHVH5krsWu9k7D0+VWPJoKk4xVZTa/5IoFUggf9aqoaeLsG2Za1Fx7wgBu84NxMKKsPWf2+j8h2CCX4chMkQAMWMIAGrh1CCnbmBIaC14mvfuFHnr3pUf8AxlB0Qp1zLJMELGEGSKwrG+EIYTxDeuI+DPMPHP2RwCJhft+Sybul+xEIAPMjgG7CB6Tq6Tvz2AljvkiQf1Bxi4R6CTG3MxnnTZQzf2hU/CnRf5vwYwC0eQgqBmEV6jzyJWy5tCo+OhNqDoBw/h/b4DkHwMyVoFVJfoSxZJUJxtK5TvTuu2IivvUCfYhghcqE4JaLjkwSTQSQZ/cjDniCDT6y6+g2wcsxJkKdf7uEDHqdI4RPAq05ggAbCMpBZQ/DDhJgAGMJcW19bHkSijtpIjBU2VW4pMaJUOor/sDAXnWCSP9CYIPf0yJ0x2KSL5J2UUe+VFKmrExI8C6187WPlw7vqV3+e/T6nj1Z93UT4s2RHl8bAJpHgn85wgDPfyT6Ryi9zr/uhKHKBAYaSIG1SAX0LRTgkpRDnkzGz4QNVIwIE7x4FHZrEfaXsHP/JCQAFBAxg3uw7YI0e2unBLlHbcaXUtMUfOL2fMPn/iFyF3kSNwQHFHuy50k+ZH9K4H4cgQPw9xHyF0ECCAC1pwQ34G8yQQAWMHrAJwYTkH+U0yBv5wQcV1NEQDBwBwU2KIOdc3n8M151Z3A2om59NHzEl2uxg3F95Bfp83Nv5EMKWCoMeGUzsk456AQ/FXDhdYNFMIMWgQA1OHA6eHio4wQfYAPfJRMYEAK9h4ReUANaVDzqB4FH8DCJMQQVpYDH5wRCKARn+EQcKGQGV4VMcAIhiIcFiGuxhoAcUVlMiIhS6GHuVXY08iB3+AR0+IhLsIeVKDyFGAUHYAP0FRYw0HTmBQarZy+7gQA8NSIysYZJQIiM94UcoYVOIIhm/rWD+icTKXcEQ4YE8ecEmSaGRxiJ1IZ7MYKKMrFgxLgcCxiBgTaEeTgEtrgEsEiDfUSLQ1CNDSWLF4GNQsCFbSV8VDACLsACdqMCiAOFV/BPIGADLQCARehDH1gEGngRfygEv3gFrwcA8whdlbOPMMBTvIFTBCmQqniPVGVwn+cEixeO8biMw7iCpVhNNrADiIQe0QiNBCiHzxeHBkhXQrCPHscElWaBfdSPQ1CPFoGQE4SB59KJuNICHkADZyhjEtkFALdKwZcyMHh9TpCTFjFsQmCOHGF1U8BQRil9nbOQXbCHRtBVu5YEXcVw5XeAGgmSzwcAYzF9G+iKWGmV/mzojOI4hULClE3QkEIZXkmZfU5mST7ZBFy5fU2YBReQAvuoH2GpBXVWaK/4gBzBbU4HX4L3EUaWBDFgAIhpABrwAHbRVYDZZZ1jAh/xmFnQi3DzfkywcjC5kXPZkYnYR4TnAzKRlp8ZhZzpiJB4k6cZkT+gYlGZBHtXYz5UmEgAeBchdTr2EYmnZZu5BbbpOqW5BQekfEkAlKxJfOyWBAzlYELQdRfhfEtgODAwJVQHnUrgbw/Gb11gmUZwVh9BnEhQdA6pjmA5ll9JfDvRVC60msVXnueJicRHhA8pBDWASk/gQaBHfD6IBFk3c652ETenBOj3nljUAwPQAR0w/gBEqGJ8eZVc0DQjeAQshJoJhpJXyBG1p5IWEaEg2GFDcKHd2H7WhjslRzNGkAAckKIcwAJrqUwGl5scgQFauAPi04xi6Z7uGR03MEEA4HCp6aAT+aM4ipXzU1RI0JANpEnJRUvRNgTBOIskOaLzKZUfYaQdmkjBqQUV5ZVEcIqdSXwAgFtJIJnNF2e35WbuVgRZZ5NGMFgOiXpONYgQGnYzVARPehEUIH8TIEQEqprmCZ/x6RSkFWaHOIB5CZ/kWZ4TCgANegQf4EG4mWCkeQR1NqkMxaZqKqWJ+p8WoV9KAI5eeKNa4EHYJwQHID4e+RHDZQRImp+zJhOu6ihI/tQgraoEnGp6P6B9l9WPWRegV1enRYBwieQAPRASD9ACiyqMSQqR7TmlfuqsQoCkCMCh0EqeDiiJHAmkGgoAPZQETQVpndFEFbV1NCcTpfoD4jme2SoEJVlTXDoEDdmoQoBIKDkFWccCtFUBb9iTYeGjRpABTbOfP3BAILCWEyBVnuqWS8GcRfCbdXpJKAB28uVNACCxRsCdSGCCFpEoMgGnVPmlQWqa51kqsTlpNFOoy/qMKvunQioEC6cDNHMBTRWpCWZESFAATSOvy4REDEsEDourifoDl+SrOUQwmLqPKmCiVvCzFFADIfEBM5AAPBovJcMBObADH/AACyAZ/mGRaDNAWgrQAiHxAh2wcDBwXhA3mhmwOR+wARlAlM+FafejAWI7BBMwMDKBqXEHrIqmsWFBAtqorh8JpNCao3L4AR67hM9qrevqlxS6skKws8UWAhsAEx+wAB7gTvIKpiVWAlKitSgaFhZLXGHBAeJ3AR9wADngtx/7uDe7e2s7JRdQtvdjpdITFhujMUs6BRfAVtKiRTgwWPzaUE9EmT5rL1piL7EqBD+7RcDKfGGBKfbCAj7nlARGsX97AhibqO/FjKIKhRdAX4xIuNcKsohalTi6Ab4rLfYCA/JXRfzzmkPgSOxjRXLpvUyQdbWGAH1onaRHNY93BbdKNQFU/mepGqZkyj0v9kS7WWbxowN8e3bsQwNEiLFK0AF3WWN5sb3rGqhOmKUU4qUXoYzVWpXl+7iTOCozsENUgwJ0VxYlazfdmgTJai82wMGDu4UZDEDUKgQ4tl1b8HQlwwOkk8DHeaYqJkakmAQp8IbfR65HkAB9KJuL2kTrW15NYMFLMAE+wAE4AAMggAA8EAJppyJ1SLg2aowgS57iCQIjibJPaMJCh76FKwQn4LH2QsTsmRfCai/yawT0SzXkY71B+42si1A97DDex31b0AD0x1IjZ8Qpa1qv0wA7rDWJHEE1vBQmkMk5JAN9SAKFVcVK8AAOMMUAYDBPkDJfAI67/uiZzGpXH9m9hooEEFwx70LLzfrB7HnAkwy5rHrJFkECyyuRLTC1PDa6SjABeLyShYXDrrsEOeCCqLTESYCsBIBIKigFNQAtYKwoLOACLXcBMxAp9ToEPWADXowCOMAAKpAB3khLMaACJAAVikIDJpADeCjPOkADOIAAOMADxHoFL1ABJsAAOJBEOEABKnC1UfABHuADEu0DAeBzU3CnjNohdNwLXMwDWXJZOCACBNWIrFkB/YwBKEABMhAC50weIaAAJIDSNKADoKfFSOEDMI0C4AEDGDDTLD0kYNCQKCYHNlINRf0FNg3Ub+ABKsoCHFC5TACVdMCT41DI8vKi/krNBg6rdLmFSMW8BtNmZ95w1OOG1VmtBiLMX0vQVSAgn2fgsK8MDlaN1GZ91mlwSe7TSFgcB5HRNIor1x0sBklt12tAdQCAAxHwEh+aAezoyWQQAwggRKv6DXPtBaxM2HSwyOFxxZO9BkKMheFA1k1Z15htBheAzFSjt2nw2edBgdpQ2dtJ2qVdBtrDP9bMBqxNAq792oEdBoM922pQAtTMZo59BlsGAzPdopS90VfNt8DdBgsQAhpAAgkNAtPCAiZQAvv83GVg0dz93eAd3uI93uRd3uZ93uid3uq93uzd3u793vAd3/I93/Rd3/Z93/id3/q93/zd3/793wAe/uACPuAEXuAGfuAInuAKvuAM3uAO/uAQfgmvZAGpwr9bciYe0ADv6gsf0AE4zSda0ifuHAINoLQRjgf+9sfsuTcALdAFYOLqc8iuE8DMioopLQAOUAAuSZa5yHp3pH9NsAEGwIP3otw+BON7dbKY1x5L3kdIjkUUk7ATsa0AYGww0uMQYAHwWJyoncc7/uOUQwMR8OQ1q3+02ePOvXGbTDU0QOMMROYLouSm0xxzfuRQkEV7jRNJbBFGbllPBAPgGTFrbjcg4K979UQgUNG+1+NnjuZiPQQNQORUI+UhGyEQKNq8nOkkeT8q/hAsnMpX7ugA0MBbCLd+AcaCXOOE/oQDir3iudjoop4EzYtEqJzXh+p7bQTbgOrBmz50c2GcS7Hdz7dTBKmKvHHFVacEL4B+fuSOhrQCJaADWqTi3zeQxo7s59EAZ1btBknsxn7tONXA3F7s3i6QOYUEhtexMRBKm9YDKaDZWtPLkGeAmP6sdYxF92O8E4G9fEN+5lsEJ9ABNuBOao0EFDuKmdjHFmG7vC5fquUB8K5ge9wFun6kwtSPB+BRHwHFLPsEL1LxIovG+O53j1FLFyFVAtuyn6q/PTsE4kkDW14E14NyURbYJ+ACFOPGKh8k0TwFG3A/gZ4Eo1VyXFrv3VHvsKzpR4DnuvkeRRcCi7zbIZ+Z/o/816YasML+AyNQUaRu1RfgsZvb8FkA8kXAUGkVBfVJmLfO48fZ8f6OvyLPrvfD8RRxQAcAvZ1q6Tl8BLcqr3UGAjF/ZGZW6UwgyXFK+Dxfy1Rg2EEf1SiHTr1to/dO0r88pGwz9xCSts/JOJA0nR7P3EKA0aRRBCCaelLwAlJlX7C9yAgg53A/9qCfWxMkplDgnRwRfRX/8bH/nqXC9BzR+NLQAAEw/AHgA53dasRf/CQcBl2lV7d8EcAv+SQYcUUgxCTg3UegYrDe80oQYGkq/Uy+902Q9omU9UWwqK9p9Jce+VlauO0Eq7Bf5/13H4G8kk4wQS7Qx56/eR/B/tVGgExAwPodEACjkfL5LZnNDeRoFP4aUeOpmW3erIDMrxsWH7XaT/EIei07VlEZ3l3D4RcrSkuyxuj95QQlEAVDoUzOD87GairrEPGRyRESTsLKZLKsBgEBBgVGxtBqDnNJssmUtFQ0NGqUaQEtrSU1zuoB8aGLaaNrBHGiawXYqqfPY7Hvo4vvp6LLpo/BCuZA6QPDKuIxwUoNbAw8CtE5SoXpA8UK67HrhnTALeuga50Wsp2W18q9cd+eDt+/H8qsLBB4zx+tgP2i8Pu38FTCVzC6zToYSSKdF7qYSIsCzY8DKwyW4LDiIVq3W3DaWNnBxEKXYmUCdCnR5FgU/hKPOFjRoSpcOEQCrFhcIjJKAIStSOU8EiJLAWQX/aCaRMBKDS1WD3LFVCUKDqqIvJJdtfXsw7QRmb6KZQSEr7Hf2ibjuCSFFQyIsEVh5tQIDTq5umhNNHXJBz1hVzZZ0OVSk3lWJvjRF0Vu0KB+TlhBkGXYkZ3sMiK6ACVNvSUxP84FWHoS6yMoGR5xOBYirZpRfrqu1dBebqC2u8KmS3zJAopRIMidK1wLYXFMuFgZ0GdEN36hj1yAQ86KBToU9mTZsPxI73NYo9BwtaRSFPF9dotmgoIT/k7593dCH4U2OuozAqQmyIviOrPqQmQD9mbTQgQrCvCNlSPemySv/ihAqc2IC4tbkBYZrEiBwgo7DG4tjEBMhStHYJlmBgrLYmIjK7JQwIoCy0DqiA2XcNCIHOAwIIzRtJgsCtWWkCqrJniEa4MywDoCBj8OPIIZTAAzwkc6gATAOSYGBEC9PqA754YFMsAxHi2uNCLMEo8z4jZM4GkPLeBcO3MSj46YSU4VkWPROD6XGpQt4pSDsURDl6hxOiamNAIPOvo6wrAltiyziS+POKCMDKzgAA4NPFvnziiEhONSIzLVgrsrSJk0MA+bSNUII5vYwQoIbE1UM3BMUEKLtwBYIVBBT6RlhTvyDBYcH347Ar9BNsEAAfyw1RYBbLsl9odWAYgx/tnhoA3WwxlJW3FOAF6YwVgAutwzxTIIijQxYwHNAlcAPnPMszIuA8CkI0jUgk0s4XhhsSMk+OGBgtPrwwcr5nXSYlI2AOEOJcsgMgqoyuhJVQXP7YKFBMtA7YiXynWUDjuiqJLDk62Q1kSbyWCCZSNc7oPWzZ7VGZw6zQXAaFKgkyleI1xo1LgspNu5CUXkg0M2AvOwgtwmuDmiBI6NMEeL/wDw+BWxDQZZtKSZQLI7OIw16pEHvowLl54B+DmLDI8gtSqi01DhpmnpLLfdX/2Y2oihBQcAZ8eJBhbpcU7O+fF6E//QwpzNtiIBGTXPAlKqmZjB2TLE7ZqJikNG/jiNH1g44t9breDBj6/T6IZ1SsrToqUj9sIkvpIRETUK3OFgHIAozcz8CBzo5lkdxGGGozp8jxY88ponpz5JRGq4XHLoD3fc7UmWPrkC32AuvXE3idGiX113uT2LD9B7w3UjKsNpRIhIWBgO5gdaCUYLOrgZJvp3hKfxJIB0EFEUHviamXlCPxmEAQLUFgaRNcFYyHrZ6BDBK+Y4zj8Z5I8KU4gAbWBOZyC0ggiBRr6atbA/GMzPCuOVLhIealneE82WAIC35/wwMXdpQgQsoQUT/E5+aWjMD3DFB+58cAkkOwLapCaxjEFidfnTG98M2IU3PGJgRZyiFsBjhOFZ/rBzfnjBBFLAgzC0r1NWiBPU9JSKx0ShUpRTnEKiNok3gQkRDdjgDluoRGW5C0V9pFz6gFi58gGABe544jScRxWYMa8MMqNdsapHkyaJKQoijIXyliBKI5wREdnpAg4omYUxOSALbQQAKxmkN/dAYkuFSIbZplezWmahA2YL5BKIEgU8JktddAieFNDnPiQiIkJRKNw/4AeAnB3TcJB03CBNFkTKSWEUzYwCBrhIKHaRzpFMKJ4R6DZNAMBSC2mcTxajxwQVpAFcuiwgIrJmhG0+ojOABNcP5gmAg/bBbtMAFRhP2Qe2je1576QD6iTUhIsCoIKBul4ZmBgFYQrS/pqSpMWTAKAjWnQzZ+QMZ9JGCsfzeY8HrngADbpAgzVGElELi+cSdGmAJhT0oVl4k1iWMLXI/IBJ9GSCAlVKhwPoDZMLRcQEMcUExtHsEQMs4h6l2YVObMtb2+qW3kDw00eCMwsfJdsSdGeEhwlkAz0YQAc6MICJopQW/4xC944GV/Vd0w8lwJ9AYFpNQrIrmoGDbJvkkY7Fcs6ccLiX6ZrwgZ6B9QwzU1wIrOC8ST0TbgVqFT6T4ScrhBQRLbDCXOvaUkiMCQADFaD5AJClcaZCtlEgQBNiBQOZ0kGLRuhduwybBS8CoJiRxURN66AdgWw2fjU7rmONiVlLdrcM/jPAqgYu8smhLmGTR7CIPZ8KhzSG7gdZu82VEPjHI6wKES4ARzH78Fx+JBcABknkMzDBPMGRZKapcGURs2CspE5iwct85HZtVy/qriuOAnEtAF5oD1ByV2maM0UX3KrdnJWYCmHApUCi2dgyyPIIRv3BR1VGB9ee0UGMWIJ+t/iDkgaVJeFAgXduC7ohWAGBltEbaxFR28wt92gUTqIVFvpRJk9iTOQF8STEemXpHraqqfCbEYbLzaF+Gbxp/kEHv7u88xrKyQCArz3Y3E4mxMqbXprZQP7DVD/8GAAw+IAJjYDFH0xTSOq85yMuYCwXZPMIV4ZDQo8ghDF9YXFf/iKBlHnKW9t+U8Gm6Bd0afEAfcXUjzYBNb00OokHmI2wmHDxJIGa2Sg3QVx2PvKeUd0Hq1nhmamw7BE6SQeW5hkOY6pBcI8Q6zIQ2gg9GHOcPqA2HTyggxMaCpKHYLYO7zaVDSsiOcUKAzIiwr49ngTyRtlrO01DCwAmgVYfUVAd0xoTH3iuhCecUiDTgrRcswd2kQ1Yd/4bIl8iaxPsab+3brULRkzFl15VhlefdwlwIxNVWwYJ1zogYWBtAldRMCkQHBPQRRRwDnoBCWYbwY68QQRu9wWJgkp6MF0I9sNJkV5qZqEHXZgrJHQJgIr3exIfEKsXEszqDF9338V2/vWZCynZpyMdPlbALxxSPnSDa2TDgZY6JBra3h2FwQ+K3mDyJgFoEgxby1moa8y59ItlNEGsBEBxFjyFoDJGMN/G0jYklNBld0Ni1C5dgqlmS+/vdOFiPGc03SttU3EeMcy0GDUMGkCKBxz78NMtVEZSjvMlbNjQku/DCcQFAHamYkvUoEPRswsHlo9h637QuPHMM4YHN+EB4uLlDy4wbIw+Arf26cN5mpgKXXpjVt3wGHVpT9YHiJvMne/DBTguvPRF9gIBYHOgabjl8iIWEnGWwf90H4Kmrfrgtt7cnbsA5SUEbeHSXRSS916GoC+CyKICq2rP4gZw3DABwNRN/gv6DvroQKxAwGOCJvcmbQxSD/gOyfT6oKE4hfDMJvWi6QEmIAI67bLyyfhEwwc6IAB/YAMqQAGwCgbsr7CsagAiQNGKIqOu7vwyzx6ICAlcoAF2AFw+4ABqwANu0EZ+67EQrjQ2jAD+yjFO0OFUzw/sCeYmrgtQIAJoaAAaKgn7gPG6gAP9IAbCIMmcKAwirwnY7b7goPuKaOzKYOmKaAVhpxusxVq65VqyRQ8rZcFIjRYKyuHMCq32UA/HLwpAoPy0YAFOsAsQwAApRQaPplrSChKDAgT4i3JgoBD1sA8/EVu85dtuzTWSr1c4KFjG8MKw7uuawaxi4GcmwAGw/sq3TGzdwiDuIIENzaqnMI4J/q8LNJEOKC0KVkxK7qgPFkBv7srixIUGHA+Z0tDqBGcJxkTk8m3U4sTTpEr3EhBaaODcLulkSGARYYh7zO8iGsARdYYGao4VRS/MhGMOjaBpAiMHbwoSeMwKjJHsoIUEiJEAWaUL3ggBZSLnuuFXFGMaKAkYj2Cf+sBThHF7bOZHckQgxEXGHklwcGAS5e5zwgEELNAcoQUEYkCmthFylNA3HsDnbIYHjg7f4u/yWhFisC8oUKAcaRIRBMvIXI3yxkAEbmDW6ICIYCv9usEPAMzr4qowCKop/WBM+E0coYWKWu4fYs8VzIcEdOsR/l4gBkgQHFDAB3TtnL7RJMGMt2JtFSfhBDzgucKBBkIgJ21RJmnKOC7gJ8GBBMIxJpNudnQu3zzgI40ABjBtKN0rGGhhwZgRDgIObGZPDB9B307FD3bR2YToZD7gDcvsH5pF68oyHDqBBQxALg9iA1LABHiAAECANTGABGQgAEZAykgSBkhABGygAPjyHqFHLdFPIBYgBXSABXBgOUAAAUiAB0wgBDrAsNZy/ugyf2Kg9e6AK0MPEi7AU0AgFW4gA1Tg7YqIBDSgBKQMccqzXMCyecwzATzAB9rTByQSEiLAPQPAB3bOPO8TP/NTP/dzPz+gBixgOFkTBUhAAHzA/h35E0ETVEEnoV+GL1mgcUEjVEInlEIr1EIvFEMztA/E6vc01EM/FERDVERHlERLFBMAUtBMVEVXlEVb1EVfFEZhzyJjlEZr1EZvFEdztFyuQeB01Ed/FEiDVEhhNKrscUiPFEmTVEmX9D7/0mCYFEqjVEqnlErpLxHJs0qzVEu3lEstNAyNYAy7VEzHlEzLFD8vgM0O1EzXlE3b1E3fFE7jVE7nlE7r1E7vFE/zVE/3lE/71E//FFADVVAHlVAL1VAPFVETVVEXlVEb1VEfFVIjVVInlVIr1VIvFVMzVVM3lVM71VM/FVRDVVRHlVRL1VRPFVVTVVVXlVVb1VVf/hVWY1VWZ5VWa9VWbxVXc1VXd5VXe9VXfxVYg1VYh/VNP6AHAkABGAADoIATGUABIqDG0FIzYIAAKEACAqAB+g8RjBVZlZVZMcBZI2DhpnFacYABDCABNgBCt7UCAkACKAADKAIDwFUDIqADhrQBAkBf6TMC1tUPVmBfA8ADAqAIA3ZgodAP2lVffSAAMK1u9pVhA2DwkkVhFxZb/bUPOoA+A9ZhN3UBDKAePcMC4tDyTgYGTEBd/QhkNQMBbKAapFVnOAAm/WAANAARHxFl+0CtdtYTLZFbuMUSu6VmtNVelKhI4eQfPspXnKw6BTIRMZaouuBpdtFf6hDdsKoY/jjKJewBTQ1yIh9nTw9gHsNBA8jya0/GB6A248YWHHTAasOJaGTgbQXGCzXDBkoMJbWHxEpNiR5AbxRvEsTlJ9Lt+BgkDNRUC47tOj4A0hyGFMKuQPQx0uxh6TKyXaBHTwsgEoMCBjoUNG1GAKBWcwWH8zAscwhgbpvgaMcRYc82c9RsEoaSJynFHqzQIr5EKssgzi5TC9DTuFrpcyaQKLtg3tZD1aLvDrISJfP02LoBBm7Wgcop0HQohzYXAJYycUHyecOBdx8JhzRoc89Qd0MTeill7PKWs9DsHBwpaKIVEj4KrArqWMIqDO7Nzb4oaqchdQEmMSsMkIj2HFpv/nryFk/lF+ZSYAYa4wFmIAUkABEBVyeb4AJawAXWcWZXQwx4AIEVmIEdOAyMEjrhYAFyAAl7q6y6gAcSYAZuowgdYB3tF30JcC0/7ByMxewgwVgKJGiatsHCoAHpQAKz4EtfaVsPCQAsUH5vuA+ObSlZSIOcuD/C4BrlNOXGZi7f5qOMYBRhlw4+QH4pgA6q+HqvOOOyWM5207BawFhgwK0mMyzGNTF8YPy2WHqbixRJ4TBbMncz1ip/4AXYLBdFeAy0b4npoYu6oGPLgIgctKlaD475NwoQwI77YMy6qk5HDQQuWAt64HMQF81wy32rshs0Geg+Z1zRrCFdpQx0/mnIXI7N9tjyyHMtD3PUEHdIrMDPmCl1+kCMjYAf4WDDxHcJUjnQWtdKZ0Y3Xy4woDYBPZcU8Ayk7PQD7qYj88lscMBWLuyQYm2aeUdjzIYCsrnq5NAKLJcJxKoW/ywYQ4wHY5kWCK4MnkuJu9hYAoSuuoBk5WkMhFlqpBYOjk0ANMtTnPkNOex4IG8uig+F7xS3SBkORk0prFOd2c6WnvId7k6i++Bo+flLyNgMBJeddbCO+fYLASiSv6J/XwGRh2lmqi5o1FQhAQ9jZgsXjAUCt09vYMBsJTMBUWCSufQFjAV733ca3OrCYsV+gpqm7eGjUMCH2llg9GJlrGB//k0JT+Dx38gVSw/zBwgXEB/hDfn5uYZ6Cfqlku2zCSQXACAgGdkMAsho1DAAnIpODRdvpceieR+ZTXcRBn66qcymOtVX466Rr/0aYsxGeNU3e+CiDNhMr7NAa42ArbFa/sj1p7n6Bw7JnOk5G8qgoHJZCwZEO71onvlJQyaaohPDU2z5Riw6GkvwIGgvneUUwB5ypUYC/iCBcbSzCWr7IFiKkS9swSY7C8SFrOmgBRpg2RqgBShsFdV3yrSHCVJuiuEgaMJxfLYWDhTtDbpvCpuqC4Q3CxJwzuQXguvAbDDgp9w4NcZiAcbvuN30D6vZMgw5hBFB45Zpvk1zb+/b/g8IF7SXgKueAj+he4bPa/fg065TW2rYTLyxCyqOlousUDffhs1A4CVGLZxJ4fZaIwuIaLZLzVM2DU916btJ4ZCS6sLqpwlMnCoO6egurJKxd3XvKZ/9DR8raasxDsDCtLPMJpGb4AbD1J5iROMmNq257RFWlwNu4LlAgL4hpP6cAGXmwgvfOk/VerNp4aN++TkhwTGJmAm0nCo+yp7v2OOs4MHQQQxEoAAAWC1arenwGOP42l9p5eTCGJfhQHLBStzCFMBAGA6WzlNCHL/1BsFMOw08GsvCwKHdtKF4GBN2kcku7EuwKNKpYhcvhrpqy6mDbAxAQAYyoKrjPKt3/hNL4bm6KqpU8LcMvNqYk8tHsibAB8JrGW0dGTwVnAy+qFYkUyFoPi1P0ZO1EU/JIzjZuoD9foDYqaJfhPnLIsDB+4Bqw4ABAoDRQ7qy0ZikpbsJNjAZ9Aatce0z+zkKCii7iQ14eoXClHkadhq5JOoGjIWfaeEAPoeR6/QEsx3d4I2Lh/fYl2DfqYJw+Q1mFiACjNjHmaADcp14PUDAdvDU3TkVMHsJFIs5fuX5EOGjNjvdjSDiFzu3tGBL6poOWlKbLmJjLKago9wPYhqQ4L1Nx4gqNI643zE6NHY6a47mL8LmHacS91BbIvG88ycEjHgMKCACZD6jub3ifbHa/lg9C2aXTCwnLLKXWrLAtZbyJ8W7D16g7+J7EsJcDAQ9FYYYafnUOc1dugkxW4I2ZI3ghtce+OLJfFig2GHFBqbThzUg4utSJlPdF39giIfas+ZnceybCd4kkJ9EwgiuwgEe8aki7HRiLOLM0OtUb4w5FQCStz/3ZCJv86nC86dSM2TgselgAGzgLcu+1maykn6ahkH9CHxllXfZD35yYhcs9+zp7+0JjFNh5YlXbft9DFKfZsNA7OfUWFy+Dzyz3UA/WEpSbnqUv3lN+oOFByL/FzwAPcOgyQFf22EfEiw+X4CNnD0cEci+vTC+4+reL5pgTMy+iytf7ufCB4Vd/iAajXixlE0PCQhGvyGxaDwWJ4DlknRkQqPSKMy2Qw4pUSEW+0EqoYTntGxeIhbd9fEQ4505LzYZOqcbpTf88SWlW0TJHH1ITfDNRDkRGUDhIHFADRIJRPXwFXmcAbRgsn2QSOHceRJGRkGslK6ytrq+YopE5cAOZUSJ1G0ygeDQyAS0fK3JQtFiRhBcHOVE8egu7XU9HLSYIEgt1g5dpLCUOZTqrUqRehZG0Y2gmv+URD1iYkSdEBFAmSD5QMEMf4BAAbFqwC4Uy7aFgdKpViApJbZBjCgxooMoBrY1ZBIuTxRpECtCucgnwhIaD4yAZKIDGoB2XS58mzXxRwcc/lOuYCpHriOrB3/o3IPysIiCKD486YhSYciBKEONEITCJSoTBaVeBIXiQsqkbVJOwiowxcbMsmbPYnkHhcY2Bk5ZunyllglbPAGg8Bg2xC2UFCw90nlgE4qAsg9OQTmak2cpgFAAY/KZjo4mSUUeQIiywVOFKPl+3IJSj5DjJSGG3O1bqpHRHyqkZIA47tWCKc/Q4s498YIUVa+a0vsrkXcU32suwIiigghwKDPgekoRReARHRqua7DQE0UUFp50lsIG5QCr5ktg4FkxHewPsWtLEWeySAMUCl2KLSn8oxIUnHwaSEHDHBdwBwUE/r0CXisPzBMFCqPpFqGErfCl/hEsW0HBABIKQlThEhuxQZWFP4Tg4IaM8SFZf0dk9hgroTGB3mIulhKKc6zUBoU2bHgIQAFEyBBFDKsgtsQyDS5BFhYk8fLDBy024ckF4t04BIDdeYUiKxJMwcWEX4JJRwJUsLfKB1Qu4ZdwEknHT5ldXAlFAg8kB4V20HmiBRSXGJHVEguVot5kfHDIB5dQLLVKZ1DkggeTTDSKWXClpMZECYIyUUMXCS3RwzpaeXIoFKcVQV9rsBTqSWVChtmqq0fQGcVKrWS0BAhxpQqLpFDMSgeMkErx3JqYFCXUEaIuoQEr8Z33nZZ8pLSEC6xEC4CSdJgHAAgnuQcpK5xa/jsmjVjUuYQPlXaKya8lwVpgla7MtkqcUCz3qr2v7hMFoJ6IaC4W8UaE7p/QbtIonphUS2oRAoNAXin91kVoFHGxMS8AO2KiZ6aYwGHMD8gCcMwqaNKArHdrFLsEC/hpi8kGUNpqXBEtSEEAxRLbwcrL2dx8r89oCUaFGp5sgCYAo/w78UwvDBbj0HSAvEXS444UxbVEgAtAV8R65izVfLwAMwB8YtLBdD0bsa4IKtoKGSamljHtGuKWsTUbRZrWBWv4JPgsHh9ozMtmPxM+odmoNFC20Zx0AXBEPUgBQeKB0VDGZyfm7Em3S1h1RI8AgIjHqkyQjUeudOxdkl50/gAuqydsa/voEvWysrkUpSOB6RRq0iEwACdjEXQUk7NyOspTPFW48rn5DoAGCCJxQOpMKDY1E2i70rwK0LeRso5vFuE4Hf0CX4TFS0ggMxYD8AdF+ab7jUeO9PLxAdxMCItJkGdo2gqzZ9MBSVJwGBsmUBpbDa4Lh4MCAg6yk6/RQXZMuNryKniW6UEqAQtgzwcWkIKoLaFX1ovGWWpFmBRskAgfmEAGQLiEITVOaZ7YARWwcD+8RKAHB3jABz5wgQ1UwAWB44X66GA8NphAChx4GhZWgDcAiIQzZ+jHK2Iihduw4Yby+dsQAQBDNpgQAAYThwz50K8lcMCCasSN/g02AQEEiE0Kl4th5sxSrcgh4IBmgAH3iCA+I0aBgEV4wRN3UYb+eY0JbgObnyCFQg4uIAEgRFopnmQGEbIiX1IIAB6aMQW5gVGJjJQC7xJJQkwsTlsoWCUGEIACBLTyla1sJSwRUEtZrjGXWMhBHA1pK5Gt4Y8SKUC5fGkGClDsiFjAWykvsz9jSgEG+5rR9VyxAwFOIZVQQEEf8ZCUMuBuFVlbgpfWkC0mdIAOC+RFN5FwRggkkJpLwF74oAlNXeLTCAd4JjRlACE2KHMbJ3iNPY9WOfphTpGrKNF7ulCBptnTBIuEHwSJZqOCXqyd6iwDCmpxpshhopEtY8MD/hbXTDrckQWro6hC5YlRM+QzpkRYgQGKuUcTMBGQFS3LBq7hSx6U4AU3cFeaEjrPVVxAbMBEQgEkoEcz4MAHGtVpNV/xgDAa0gX0XANRmQDKVxCUUZjAoN2Q4L0lYBETWJFC9XBWVbe+FKYynStNfKAAGsAgMyBAwS8CEE67+CCwgQVTD0JwVxQAZK8UEIEHSgCYfoEgpz8IgGADu1I+tECwAfBABPDwgBaEQAc8oAEOUIADCrBAAi7IQRGLF79V9NSmZajCVAlmiG3YzouYWJRq1pDbA32rS6YEwERHGNcp0DW5yp0IujDQ2uX+7AOZlQEJEKstGPzCBwPYKnS72evd74J3uacgQW3Da97zoje96l1vRA4AAxYUl73ynS9962vf7k6Au/fdL3/769//AjjAAh4wgQts4AMjOMEKXjCDG+zgB0M4whKeMIUrbOELYzjDGt4whzvs4Q+DOMQiHjGJS2ziE6M4xSpeMYtb7OIXwzjGMp4xjWts4xvjOMc63jGPe+zjHwM5yEIeMpGLbOQjIznJSl4yk5vs5CdDOcpSnjKVq2zlK2M5y1reMpe77OUvgznMYh4zmcts5jOjOc1qXjOb2+zmN8M5znKeM53rbOc74xnHQQAAOw==;" vertex="1" parent="1">
          <mxGeometry x="58.32" y="180" width="351.51" height="157.88" as="geometry" />
        </mxCell>
        <mxCell id="QcueibEvGzN47DiXS-O3-3" value="" style="shape=image;verticalLabelPosition=bottom;labelBackgroundColor=default;verticalAlign=top;aspect=fixed;imageAspect=0;image=data:image/gif,R0lGODdhTgK+AKUAAAQCBISChERCRMTCxCQiJKSipGRiZOTi5BQSFJSSlFRSVNTS1DQyNLSytHRydPTy9AwKDIyKjExKTMzKzCwqLKyqrGxqbOzq7BwaHJyanFxaXNza3Dw6PLy6vHx6fPz6/AQGBISGhERGRMTGxCQmJKSmpGRmZOTm5BQWFJSWlFRWVNTW1DQ2NLS2tHR2dPT29AwODIyOjExOTMzOzCwuLKyurGxubOzu7BweHJyenFxeXNze3Dw+PLy+vHx+fPz+/CwAAAAATgK+AAAG/sCfcEgsGo/IpHLJbDqf0Kh0Sq1ar9isdsvter/gsHhMLpvP6LR6zW673/C4fE6v2+/4vH7P7/v/gIGCg4SFhoeIiYqLjI2Oj5CRkpOUlZaXmJmam5ydnp+goaKjpKWmp6ipqqusra6vsLGys7S1tre4ubq7vL2+v8DBwsPExcbHyMnKy8zNzs/Q0dLT1NXW19jZ2tvc3d7f4OHi4+Tl5ufo6err7O3u7/Dx8vP09fb3+Pn6+/z9/v8AA+b7QJCgk4IGLyH8cBDhmoRpFjYsiEliE4sRGarBuIRjrA4AQoZsUkEkAASXQJokaRIlmgEGIARQo1IkS5EuK9UcyaQk/s40MGXSNAngZsicsnYWZVLAJIqURJs0FfnUTAQCIiGcSKNUqlOoK5l+tYo1pFauUcVSrdWVSYmxVgwQnUu3rl2RF660XfJ2rZkcRDWgDcsXbhW5dxMrNpnXyl4lfUNWLQPYpGA0j5NEBjD58OLPiRuf+fDgxQPSpkmTrkG09GnXqF9ncJoatm2NSRCD3k1UNJLYwF+zNmm7du3ZVI2/ro0biwCiI7gEZ/5guMjiy2XTzh68+RHdvMP7PjL99erWyoMjl5z+9pbnJqNvKa+6Onruttdzbs98Cfjwu41HBoAE3qWDfwXytpUSCTZo0oFaHACCSTJw4eCFEOZ24WIL/iaxYYMZYiEhhRZ+WGCI35l4V4dmqEggikb856JINywxY3gwWuEDUTtscSNvORIh4401MvgjaEFSsaNJPWpxJJIIPhlSkWdIuViSQoAHgwwSiMCll152CYNJOHxpZpgsEMXiEVYqhqUUDyBgkgU+tmlglCFt2eWZX44pUpl77ommmjbaadebUcQ5Z52G0vWmlmYK2ieZkYLJZZomrTlgo47iCUCFSpQVkg9KjEAUlUhw2mkRD9zwwAUXvBrrBTfMWuursr66ZEgg7PDqrbTOmiusvwqo6lyPkhiqSaQmYapJqLJ57INGtDqsrdjiSuwFuwLQa7HgzipusUZMS60S/uCBmoSoADSLxLM0pkEDBSTMWy+9NNSLA1H13utvvvOiwC/A+OJbrweeirAEu+4eAW9ImhZh78QG07CvSf1SnDEFAmNM8L8HG8GBuTZJXDDIFg/8b8Ucq6wxwAija5LCy4rUsBEPAxAxES9XfLFIG6PcsscrZxwzESOTvBTPJ0+sr8tN39sx0B87TcPRSIBH87rMlkooHZkhsVlnVKS7cNdJTHCqXmkV5lcUSZMsRdhHjI2F2TWPqoTa0LJNGGSGPRG3uXO3DfjbnomkLhIM77022IYn4ZNkd898ts1KDPB1FXQbMTlnUww+beF/Sx74FFpfrncSmmfqd8lLfE62/hOiH0s67ErIXrlIWzOONhKti7RzG50XMRXlVww5Y7S387TE8aBLUbuqzS+tBPSzS6G8i8xHUTwR2IeutPVOfD9E+Mm32b0bB6TgfgoZNLHB+xnksLuUwzvRPv3y02+/9OOTwv7cFz8mzI+A/4tLm/LXhAHCr38IFJ/SBPi+BxrQf/d7EgPFsIMNeHADC/jgCjYwwhGK8IMeNKEKSYhCEHpwg0PYnorWd4QOfjCEKWShCXOIwhXqsIU4zN8DTlArIhLxAkc0YgTIdIMkFrGJT0QiFKUoxSQqwYYexOEPd8jCHvKwhEB84RNkaCIaGgGLLswhGE/oxS6u8YZiTMIQ/p/oxCou8U9TdGIdjRhFPiLxiijUIhi5yEU3qjGMG4BhltTXBggYSgJjXOATHGknSGIhBCahwRko2SZLNoGMH1LkDzhpJU9aAZMi0aQZSCklU3rqSKL0Aiuf1DtPocACJsilLk2ASxNMKJW57OUuTaCAxzVhlkeqJRU8YBIebNJQytQQVYS5y17+MiQ0COYwc1nMvjkBmT+KphSYKRJnrhKakZzmNnmZy2sCIJvs3GY348UGcN5ocZ7CpxEax7rNMcGeM9LnFBxgEleKAaAuEmjWlMU1zPXTdd80lEKjQFCRGDQMCFXRRGPEUN85FHj+TENGTSTOFPFOde3ymjeP/onODKrgmXYqKUdPmreUOsuY/2xp+kTy0nPGNJ0hkekP+PkunIpUokD9FEpvVoSciXKkH9roEzRgEgPAtE1SFVJHj0BUh4VUCVDdUFabQFWRWNWnWE2qVLuKs6/mgQEmiUEYUldTphKBb/T8AlxFIlc1zBMANnhrXOdqubo6bqVe2GtI+pqGvwYWD4oFAGO9QNeGrg4JeJ2SHFSThA9EdrJHCIANBPRJSU6Bs7/57BJES1oriOB3ETlNZ1WrBNaizrRSQC15aJsE23LhtR+NrXeI4NnB1na0t7VSLMHwgQRggAPDJQJvj3AAR4LAAQeIAig3ZMbfOBe6SpiuEarr/i3sboEGJgnAC/hjnge8ZjnRZUJznxtfIYi3COS9bnahsN0LdZc8363vD+5LhPyaVwvoFYl62Vuf96JGwJ0NcHiNiwQD7zepR/qvGD4QAwyIxAFKoACFTcqrBfAXtxfp8IdDPOKZllgLHt7QTKDA4RgDAMRJEDFfZSYSEJgYwz+KZY1XnOMWFwE8Pobxh2b8hCGHBMdI0PFiefxiIN9ouV2YwVwakAQCCyF4IWGAdhn5BC0ThctI8PIPwAwAMWfhAyYKQRTMbBI0H0HNbHazlZcHBTqLxM5GwDNR9HwFOH9Izn3ecpeNPIQ8j9lKGhbDHalygeEWd8fkoQApexCF/gJs0wIG+LQB3AlPauoS1Lt8QBQmLZlKG+HSU870piNkItA2gdWccXURYC3Z32jaJJyGgqeHiWpijzqT2hR1qldNFBTomrhe/sCvRRJsEdVaCrh2tqWjPe2QVNsJw65mqI1N6mQbe9lvkABRLjpgRn+AnCK5TBhIANsvqLugaXY3vEMibyw04NpSuLdF843pXe8bAP3+Ar2Da+91EzzWBg/MFv79IVs3QeAhYTeB3y1xMSz8sn64wNRCkoI7Mzp4jkRAa7fAVi+InCglD/TJs3KSlUsBlRuKeRRebhKdS3fmZqn5GFreBZ6LxOdDIDDKha4FnF8I6U4wOslNXnAi/ixd5UOvdx8oLhIYXDjpRr6AjUNSAYh8gehd4Hqevm7fsI8dAGWH8FQLC4WxJzAKageA12VedSGInShxFwPauZD3vRfhvn83SeCzUNagSsHuVCg829vd9x8kXiSLB8Pg9fBXAChTvB8QnQbMfnatf6Hzn29x6ANDeiuwC9F1N0kJqoB6vkNcCKu3TOu7sPkt1P7wqhf97qnw+sfLnvZESX3fcx/v4bPc9Hw4ASlxwHbxVmD6sm3C+BA1BOmTqfotvj6Zsp+FDRClBVH4gJwwXwXv/wn8fRf/n8hfKJJxXwjuDwn1gR9/7Mv9CeZnEuhHY+tHdu03ffB3ez8gf/pH/n9GYn9uEAP6d3dgV3kHgBhJ9gTbBwUSCAA4QIFtZ4EY+GNbkAJE8QJSUIAAMIBU0IEfSHUK+AMXWGVOsIFP4IIgSHkxOIPeQoJaYIImgYJRoIIsOAU4CIO9hl8jCAU22AYqUADxtXE7oAMVEAVN6ARPGIXuNoVV2AV/ZU5RMGtWkIUPl4S7xoVWqDT3NwRkiIQW9wFo6IXNNAViWAVtaHtmSFxxqIFqSAYP0EVZBEeE9EHs4gKBeIhplIgpNFxXKAR/yEVaFEKD6EGFiIiRCEc99H+sQhQWxwREMQFM8IiBJIhttAGVmIiXiIiLWC59yCqAiIqvuEOnmIqwmIlw/sKJU/CJofiKlziJpmgShliLwriKRdCIXxAAStMkRIAAMNCMzogAEOCMzwgB7nQX0jiN1wgD0PhYRICMJKOMT5AAPJKLJrECTOCN5gKOQsCM1wiN2QiN1WgX2aiN0diOEMCNQ4CO06KOTSCOTEKOImGOq5WMRsCO0uiO9hiPdTGPCHmQ90gG+ngs/BgFMgA0Y8cC11QDrwYFEakqE7kEkQWGUPAA4ziQ33gFFRkSJHCRGbmRT9CRnPKRE1ZOU0CS/2iS6YiSFmkSGCkSGrlrbgCTjSKTpSUSM/Az7WIDPVaEUiCUhkKUR8BmORiKrXGOBJk4IXGUzKKUvMKUUeCU/nYClUYglTVZlTi5jwpklEjpA1zpLV4ZlFc5BY2XUmv5AgnmLV04BWDZJmJZBPCRJ5pYBBcQOUiwl1bSl0gwl6RSl3cJAnnZlHHpBH+pd4FJBINZOoUZmVGgmD/AmD32mG9gmFKCmKwyODTTOAfgJyEBe1+pmbFDFKwJBQGYJ00gmk9CmkTwAKYpBKipmgAQmy/pmrkDm1Qwm3pXm8IZirs5VF2TmiYBnIKgZl+wAGNHAqrGnA41Au4kA9dpBtK5BQ8wdjDQnVGwABgzBt/ZBdSJMdfJT9pJIeRJBumZBeFpEuNJBeYJNOjJaGGwnkDTnmjznooTn4DAa534Bf5I/hXKSFR5hwMDUJlVYKBlMJe/WQU9wJMbNp9akKCSsaC/06APWgYSSgYUCp1OcKEiwQIZyp8I2mwe+lEgCqFzoKFXsAE80GwbQARd9TkhYQFCuJ+V5wX68U5WYB0A0FNhQKNWYKM4qqOwxaMA4KNloKRUMKSqRAVGiqRgQKXFeaNOkaNDsKNzIaWCIGV5+AUv4ACshAICGab11gDViAJlNwZmeqBaMAGsJB9UwKH4+AV1OgZpuqZtyptvGqdzKgZ/KgZ4Ch1WwKd0yqJaEKjNNqjYCXI/AKfNdqh/wKVNlgAqqJKa0nIj4JshwQEDIAac+gQHMHJRulMhkQBAGoPz/uGpc0ECoap1ozoXpoqqkCoirEonafmqsXqm0kGr/HKrDPcDuUoUu+oHI9oF80UXPNA9RLcBZmpRM/AFz+py10oDP0oFY/eW85GqHeFc0kqtpmetdCEB2eoF21p03fqtUxCuKxqkWBCtczGtXJWu15px7coH5IoEJ+AB4OQClmVT1ZKScyEBeroFAasEDxBZeoebR9ACRpVYvSoFA1uwB2tXP/AACrtuDasFDytHEgsDFGsEFotYepWxUbCxdWGwHmWpQwCydcGwfJCoWdAAGNds4kqoyUoECaCQAMACoHkFOssFETsXPxmh7HKlYZC0V8CzdoECP1upCHsEQ1sX/kbLBVKrBUtLFE1LBR/wtGTwtVVAtXVhtYaVBFtLF10rWPY6BZNJFCrQXb23AB83F2eVBSVrBBfQr0xGBQcgsREgny4rmXZxt0u1BHprF32LBX8rmIJ7BYVLFIc7rHYaBXVrEozbtknwuHURuXTwrktKFzgwth0rXx4QjzgQafI1uUNwAOwSEn2aOwiAAwTAAAzAAQLQryAAu2Qru8b5J6o7s1n7G607F6+rBaZrubULWE9QAbm7u737u3MRvGPwvMWJuse7r0FrcK4rvGkguz/QLSAQAvK6uk2wApjCK5R6Bea7AKwKAGv4sZ+xuSSbuE6AvurrBL03BO5rEiAQ/r9WML/1e782qRj667f82wT+u77I67FGMMA9ZsAz+sDydTEmEEsBTAQ50DGzxwXm2wGspKVOAFx3gcJJqsEdwcEeDH1IEMIhMcIO68JKYMJ2KwUqvLjeicOdBcNQ8MFDQMMAYMOQBcRJ0AEmkLJEXLMuILMkrMTAc00mMAVDOhe328JzSwVM7MQyjAQPEMUY28VTMABWjMWJscVbSsVH8MVS8MSOSMZ7YL6uF8ZoYMc/sKgUvAQ3QACk6oEm8K9T6sbPF75qoMd8TAV/HMg4MMh5bMhaIMcCMQULUEBXMEQHsAMy6g6XTJ8nsMmdXMmkXMqmfMqonMqqvMqs3Mqu/vzKsBzLsjzLtFzLtnzLuJzLurzLvNzLvvzLwBzMwjzMxFzMxnzMyJzMyrzMzNzMzvzM0BzN0jzN1FzN1nzN2JzN2qwQDnER3ZwRD/HNHSHOlOARnUXOZuB820wG5iMEn4MUZRAUg2sG7byALQEWuGM6P/ESMTHP63wG9Yw+ZXAVWYFlr+M813M6kRDQCg0GBG0WBv3PB00+YtPQX1AZ8TYY+VzRiFM2bWJzTVDPdvMXHSfR84Ed9WGkAIDS+bEd9OGAVlC3I1toLH0exMFgD6AfKIDTENZfDgLSL23T14HTOs3T78GoJu0krZgFI6I4JQKBVKZB9Wcu97sETR0S/mOV1Nq31FnQLQCQsh7C1ST2JN1ljDpSklptBWZdBYoiEsCaBWsdQ/ZZKTIQJiLgm4Bi13V9KW5FBHFdkyr41mlNBcZoLduSLcGiLbOCvr6S2I59LeRSjGLtYkoFul7FsqwI1bnpKocdLsAyLIzt2cLS2cEy2D/QMxmDlAAQNFYzNFRTNDAjMgFkMrD9NETzMlIDNSiDNWMtVJvnVEuA2gCj2qzNMqxa3EYj2xNk2ksg0hatBNPDKdXTBCMdrJXNvph1sd5DmHXz3EkQ3Y3C3M3N3Z7j3UgA3oYy3T1h3kxQWROcOX39BPWsOwC03OKNBAzd0bQz21CQ38hj3Rk2/tFeod9NgN52ct9J4ECYrAQHBD9TuQQG3iYUxD8XFEGuKtVWoOAQ5OASJDf3jUaC9ENsxEYrVEhBBLF61EdNxGqvu0d5REcqbkVJAOIn9EavaEgijomi5NMNArs0fki++EWHNIqJhOIwTkVKxEQuvuQxXkQIHlYXwm5R4HRQOwZQ7iBSTtmwNEmPlAVUjuBdcOUNIlROsG8iaeU61d5OYWrJVm7xNEydB7tiniBk3gRmDuZcMOcFktVLUFEZd1VWwud4g91RGd9GoOcEwudK4OcAkOV4HoZpjpVHCuhSUueLRFOE3laYnQSIDiCW7iks/OhU0OnhoehJMJeke1BI/uUEg/7eNwVRLGUnpp6YVSXqa6DHTeBYciurWuDe4Euzd6Xd+2vGYKDrti4dMD0E3JuPyPVbeBwGuvVq3+lbj4Y/ZJvsuDftzb4FPdzHx05jErZoXWxh55Ve64Uf1OFgpdHJ8wVe4s7rQkDuJwZpuRXuZWin8p4FdwkAC4bu7aXuLzDK2+xkN8ZiXYxkPmgFb5cg/twRKvZkBg/vP4Dw827tTfbwBV9kB0/ACV8FC18gDY/gfhYSgMZ/8O5obxZnc6Zo9/5QIkFoRSklwjvyAFDyPze3KH+vKv/t2fZsys5tdWi5AAcFPb9t/CltQS8VykZuyPbm4oZuT1D00n70/t0GAN+W4UN/7D2rcfpW0v6W9U+w9S3/ageXcF6wt96OBWLvhuRR9hMH9qIudQAAdTpIrGtGc1jXdCZC90wg93SvdHgP0lhAyVLg92w/loG/BU7nIHyP55KHh7Z2eWSnzlAwl58+BJA3BY9v8sQq+XBH+VdA+FKw+Tcfg56feVdg+cYnEg+O579X+mfKfPwG+k9QfFEwdkgcBa9fgQoo+whH+3eMyFyw+yHY+8In8Pv0nKtfw99OBPnngQl4pgzogdg+BcV7teShgkf7BM+/f7APWtOPA9Uv2ZrNBN0f/eDvf1tw/emn/c1PBEcI+eO1hFwAhCIhwUtAhFYQ/5xv/ms8mIFA8BMOiUTAEZlULplNZ1JXlBZjR1xuykjGpAfDEbSYjsnFlPJVHiOSLfUbHpfP6XX7HZ/X7/lTVeFjTAuJS+pjR6eij0ghiccOIqlH7y8wa2vqMJHuqdPzEylqrlIQ0xBRcVGoEemxLhJpUnWWttb2FjcX7mFjZeN3YwFY2Be4eIMgyeVXmHn4GbjXcu5BqZAzaeKN9zj4ufs4GWnZ29m83Hh6CJS9HUqKO7rZGxxY/Ih8Xh86va7aFBsSbboIFjR4ECGuAO4YftpRJ4GSh3WUrHizsGHGJhOJIIDxESQCCCBDQgABimTJlDBE2pCCUWNMJBzlRExCU07F/oQ7efb06ROmzJg44Qw64orOv5kXhQolSkcGEhIYkrA4eaSGoTlBmzZ8qsYoAKTUJP40exZtWjxcu7r7SmaAEiz+lDxg2jbjWzhfkMzAkcSHDSQg3KzFm5dO3CRzk9ZV+xhyZLVsDzukIyAJDHVyLiiBQ7lyJ71qNAD+8ReJjxc0BqeyAzq0k9FSMCPRbKdzEsm7efcmCDs2k9lEKigJcWdD5s/B2Q2HxyGJCCH3APj4cQBGkuOvmYNyLqS4duTKfZc3fz5h2Gu4HlC1bdfOgiQkcqk/uMD9ERLwqVv/MeKqI2SAryD7dGkvMwLpkE8q9Bx8EMI+PjAwl9LEu6OH/qpwmRAgXWxCAgWO+huiASVwGGAzWzgkhCALkdjOjgyRYCHCGm28EawObclACRryqCEJFerT0ZYNeFAChQ2IGHGI8JKwIA1dKLyFxyR8xANIJITEkcsua6SAyFkmgAWJEfL4EACXcAGTRVxecIDMI1CwaEnTiGggQDkrSHEWNo9Yr5YxlTATDzTV9BLRRHubkpYDUFDCAj34OiKBIdus5YME2FCChBOkYJKIEbJTgoMBcGF0FkchlTSJShV9FVa0Vvzzlgv8PIKGKPHID4DCVESVj0x5beWGKUAlYoNbkZBgBkyB7cPWHnW9g1dfY70W24Oe3eOBsACA4bsxWlCi/thTw8zjBA/iVIaMY4l4IComJCBUlW316FYJcPUYN4lys/0XYFtuBbQPfJXIKo8PqLtyzXPtaEACJ1Cw9lM7x0ggz6pc42PgWgxOAmE8FLYy4JJN7sPeO6JVIgA9DvA2AikdrqM2JlTwdwx3pViABCcMWCRl3JQFoOU8XlYi5pOVXlqOWQEg2GXqjjj0jQoQwIEABhjgQIChQcDZ2ZnpSG4JHEIuQ2dDPMgYABzAFjloOg6QOk05rMZaa669fpvpvv0WIm45FnhUCVHiUKoTqGkJPA4fkgAhhGnRtliNFVh4nE6UxV6Q8HfkQPwJxf8e/WTG4ehg3S3nEMET1S2l/nWRD1AzwVM50iYjB8JLmMX0N1BXwvU4WO8keNKNL33zxAI0wY4qnaD69adn6cCEcKejfBcXXFg8+TkGWL75TqA/nvyAe4dDUP/quIGAUZPAwYRmDTrfltvT636O9O9g330k4Je/fAEU4B0WkAE+POAEB9gBnwYIqwIeMIELbOAEKVhBC14QgxnU4AY52EEPfhCEIRThCElYQhOeEIUpVOEKWdhCF74QhjGU4QxpWEMb3hCHOdThDnnYQx/+EIhBFOIQiVhEIx4RiUlU4hKZ2EQnPhGKUZTiFKlYRSteEYtZ1OIWudhFL34RjGEU4xjJWEYznhGNaVTjGtnYRje+FxGOcZTjHOlYRzveEY951OMe+dhHHQYBADs=;" vertex="1" parent="1">
          <mxGeometry x="58.32" y="360" width="348.16" height="112.12" as="geometry" />
        </mxCell>
        <mxCell id="QcueibEvGzN47DiXS-O3-4" value="&lt;font style=&quot;font-size: 16px;&quot;&gt;举例：FontSize = 12&lt;/font&gt;" style="text;html=1;strokeColor=none;fillColor=none;align=center;verticalAlign=middle;whiteSpace=wrap;rounded=0;" vertex="1" parent="1">
          <mxGeometry x="20" y="-10" width="240" height="30" as="geometry" />
        </mxCell>
        <mxCell id="QcueibEvGzN47DiXS-O3-5" value="" style="endArrow=classic;startArrow=classic;html=1;rounded=0;fontSize=16;strokeWidth=2;" edge="1" parent="1">
          <mxGeometry width="50" height="50" relative="1" as="geometry">
            <mxPoint x="290" y="131.06" as="sourcePoint" />
            <mxPoint x="290" y="101.06" as="targetPoint" />
          </mxGeometry>
        </mxCell>
        <mxCell id="QcueibEvGzN47DiXS-O3-6" value="" style="endArrow=classic;startArrow=classic;html=1;rounded=0;strokeWidth=2;fontSize=16;" edge="1" parent="1">
          <mxGeometry width="50" height="50" relative="1" as="geometry">
            <mxPoint x="60" y="90" as="sourcePoint" />
            <mxPoint x="90" y="90" as="targetPoint" />
          </mxGeometry>
        </mxCell>
        <mxCell id="QcueibEvGzN47DiXS-O3-7" value="&lt;span style=&quot;font-size: 16px;&quot;&gt;FontWidth = 0.6 * FontSize&lt;/span&gt;" style="text;html=1;strokeColor=#666666;fillColor=#f5f5f5;align=center;verticalAlign=middle;whiteSpace=wrap;rounded=0;fontColor=#333333;" vertex="1" parent="1">
          <mxGeometry x="40" y="50" width="240" height="30" as="geometry" />
        </mxCell>
        <mxCell id="QcueibEvGzN47DiXS-O3-8" value="&lt;span style=&quot;font-size: 16px;&quot;&gt;FontHeight = FontSize&lt;/span&gt;" style="text;html=1;strokeColor=#666666;fillColor=#f5f5f5;align=center;verticalAlign=middle;whiteSpace=wrap;rounded=0;fontColor=#333333;" vertex="1" parent="1">
          <mxGeometry x="300" y="101.06" width="210" height="30" as="geometry" />
        </mxCell>
        <mxCell id="QcueibEvGzN47DiXS-O3-9" value="" style="endArrow=classic;startArrow=classic;html=1;rounded=0;strokeWidth=2;fontSize=16;" edge="1" parent="1">
          <mxGeometry width="50" height="50" relative="1" as="geometry">
            <mxPoint x="60" y="192.12" as="sourcePoint" />
            <mxPoint x="90" y="192.12" as="targetPoint" />
          </mxGeometry>
        </mxCell>
        <mxCell id="QcueibEvGzN47DiXS-O3-10" value="&lt;span style=&quot;font-size: 16px;&quot;&gt;FontWidth = FontSize&lt;/span&gt;" style="text;html=1;strokeColor=#666666;fillColor=#f5f5f5;align=center;verticalAlign=middle;whiteSpace=wrap;rounded=0;fontColor=#333333;" vertex="1" parent="1">
          <mxGeometry x="40" y="152.12" width="200" height="30" as="geometry" />
        </mxCell>
        <mxCell id="QcueibEvGzN47DiXS-O3-12" value="" style="endArrow=classic;startArrow=classic;html=1;rounded=0;fontSize=16;strokeWidth=2;" edge="1" parent="1">
          <mxGeometry width="50" height="50" relative="1" as="geometry">
            <mxPoint x="418.15999999999997" y="229.99999999999994" as="sourcePoint" />
            <mxPoint x="418.15999999999997" y="199.99999999999994" as="targetPoint" />
          </mxGeometry>
        </mxCell>
        <mxCell id="QcueibEvGzN47DiXS-O3-13" value="&lt;span style=&quot;font-size: 16px;&quot;&gt;FontHeight = FontSize&lt;/span&gt;" style="text;html=1;strokeColor=#666666;fillColor=#f5f5f5;align=center;verticalAlign=middle;whiteSpace=wrap;rounded=0;fontColor=#333333;" vertex="1" parent="1">
          <mxGeometry x="429.99999999999994" y="200" width="210" height="30" as="geometry" />
        </mxCell>
        <mxCell id="QcueibEvGzN47DiXS-O3-14" value="" style="endArrow=classic;startArrow=classic;html=1;rounded=0;strokeWidth=2;fontSize=16;" edge="1" parent="1">
          <mxGeometry width="50" height="50" relative="1" as="geometry">
            <mxPoint x="60" y="369.9999999999999" as="sourcePoint" />
            <mxPoint x="90" y="370" as="targetPoint" />
          </mxGeometry>
        </mxCell>
        <mxCell id="QcueibEvGzN47DiXS-O3-15" value="&lt;span style=&quot;font-size: 16px;&quot;&gt;FontWidth = FontSize&lt;/span&gt;" style="text;html=1;strokeColor=#666666;fillColor=#f5f5f5;align=center;verticalAlign=middle;whiteSpace=wrap;rounded=0;fontColor=#333333;" vertex="1" parent="1">
          <mxGeometry x="40" y="330" width="200" height="30" as="geometry" />
        </mxCell>
        <mxCell id="QcueibEvGzN47DiXS-O3-16" value="" style="endArrow=classic;startArrow=classic;html=1;rounded=0;fontSize=16;strokeWidth=2;" edge="1" parent="1">
          <mxGeometry width="50" height="50" relative="1" as="geometry">
            <mxPoint x="409.99999999999983" y="410" as="sourcePoint" />
            <mxPoint x="409.99999999999983" y="380" as="targetPoint" />
          </mxGeometry>
        </mxCell>
        <mxCell id="QcueibEvGzN47DiXS-O3-17" value="&lt;span style=&quot;font-size: 16px;&quot;&gt;FontHeight = FontSize&lt;/span&gt;" style="text;html=1;strokeColor=#666666;fillColor=#f5f5f5;align=center;verticalAlign=middle;whiteSpace=wrap;rounded=0;fontColor=#333333;" vertex="1" parent="1">
          <mxGeometry x="419.99999999999994" y="380" width="210" height="30" as="geometry" />
        </mxCell>
      </root>
    </mxGraphModel>
  </diagram>
</mxfile>
